<svg xmlns="http://www.w3.org/2000/svg" viewBox="0 0 543.17 750"><defs><style>.cls-1{fill:#3354a5;}.cls-2{fill:#18c1e4;}.cls-3{fill:#40b97f;}</style></defs><g id="Layer_2" data-name="Layer 2"><g id="Layer_1-2" data-name="Layer 1"><path class="cls-1" d="M411.14,477.88c.6-24.19-8.72-44.93-24.38-62.31-18.44-20.46-37.47-40.51-58.74-58.15-14-11.63-30.2-17.69-48.51-18.63-16.42-.84-32.67-2.93-46.48-13.3-24.87-18.67-33.79-50.65-21.86-78.54,12.14-28.41,40.64-44.32,71.18-39.75,29.7,4.46,52.52,28.91,54,60.57,1.47,31.48,12.51,57.39,36.41,78.33,14.23,12.47,27.09,26.53,40.33,40.11,15.82,16.22,34.94,24.53,57.51,25.38,29,1.09,53,10.76,66.38,38.8,19.49,40.75-9.29,90.7-54.45,92.88-31.76,1.53-58.47,12.27-79.75,36.39a344.91,344.91,0,0,1-29.22,29.27c-23.9,21.26-35.61,47.45-37.13,79.51-1.7,35.86-30,61.44-65.44,61.56-34.54.12-62.74-26.42-64.35-62.49C205.26,657,194.52,631.67,171.81,611c-13.39-12.15-25.78-25.41-38.47-38.32C114.58,553.65,92,544.16,65.2,543.54,29.06,542.71,1.68,516.77.12,483c-1.7-36.56,23.15-66,59.57-70.63,31.18-3.94,63.69,19.63,69.84,50.87a127,127,0,0,1,2.23,19.25c.82,20.56,7.3,39,20.77,54.52,18.66,21.47,38.15,42.4,60.32,60.15,37.64,30.15,86.23,28.44,121.65-3.83,18.77-17.1,36.15-35.75,53.74-54.11C404.56,522.18,411.53,501.33,411.14,477.88Z"/><path class="cls-2" d="M336.73,67.19c-.61,35.88-26.84,63.9-62.54,64.33-30.05.37-54.06,12.06-74.43,33.13C184.2,180.76,167.63,196,153.2,213.07c-30.82,36.47-28.58,89,4.49,123.73,16,16.86,32.64,33.2,49.25,49.5,16,15.67,35,24.52,57.7,25.35s43.18,6.31,58.27,25.41c16.74,21.2,18.9,52.92,4.11,76.34-14.52,23-44.84,35.3-70.9,28.78-28.21-7-48.45-30.42-49.48-58.94-1.11-30.82-10.95-56.87-34.82-77.62-17.2-15-32.47-32.11-49.25-47.59-13.78-12.71-30.64-18.38-49.46-19.29C33,336.81,7.9,317.52,1.26,284.42c-7.41-36.94,18.64-75,56.09-77,38.08-2,67.23-17.47,91.64-45.77,14.84-17.21,33.75-30.72,45.4-51,9-15.54,10.87-32.52,12.05-49.76C208.87,25.47,238.49-1.38,273.85.05,309.79,1.51,337.34,30.92,336.73,67.19Z"/><path class="cls-3" d="M543.13,271.86c.31,35.77-29.49,65.9-65.58,66.31-35,.41-66.1-30.5-66.25-65.91-.16-35.8,29.84-65.79,65.83-65.83C513.81,206.39,542.82,235.14,543.13,271.86Z"/></g></g></svg>